# xmcd
#
# Track frame offsets: 
#        150
#        21300
#        37875
#        55678
#        71251
#        96338
#        116970
#        139882
#        161233
#        184021
#        200146
#        219762
#        244224
#        263338
#        283247
#        301182
#        318837
#        334999
#
# Disc length: 4746 seconds
#
# Revision: 0
# Processed by: cddbd v1.5PL3 Copyright (c) Steve Scherf et al.
# Submitted via: ExactAudioCopy v0.95a4
#
DISCID=0a128812
DTITLE=Eric Clapton - The Best
DYEAR=2003
DGENRE=Blues
TTITLE0=Layla
TTITLE1=Wonderful Tonight
TTITLE2=Change The World
TTITLE3=Reptile
TTITLE4=Running Of Faith
TTITLE5=Tears In Heaven
TTITLE6=Superman Inside
TTITLE7=Blue Eyes Blue
TTITLE8=Let It Rain
TTITLE9=Cocaine
TTITLE10=Get Lost
TTITLE11=My Father`s Eyes
TTITLE12=Travelin` Light
TTITLE13=Riding With The King (with B.B.King)
TTITLE14=Before You Accuse Me
TTITLE15=Come Back Baby
TTITLE16=All Your Love
TTITLE17=Yearing Us Apart (Live with T.Titner)
EXTD=
EXTT0=
EXTT1=
EXTT2=
EXTT3=
EXTT4=
EXTT5=
EXTT6=
EXTT7=
EXTT8=
EXTT9=
EXTT10=
EXTT11=
EXTT12=
EXTT13=
EXTT14=
EXTT15=
EXTT16=
EXTT17=
PLAYORDER=
